<svg width="14" height="14" viewBox="0 0 14 14" fill="none" xmlns="http://www.w3.org/2000/svg">
<g id="local-two">
<path id="Combined Shape" d="M6.99984 0.583313C9.73826 0.583313 11.9582 2.80323 11.9582 5.54165C11.9582 7.28323 11.1545 9.04435 9.8108 10.7628C9.33392 11.3727 8.81529 11.9414 8.28396 12.4594C8.24019 12.502 8.19715 12.5436 8.15488 12.584L7.91108 12.8127L7.68853 13.0132L7.48975 13.1849L7.36835 13.2855C7.15532 13.4591 6.85002 13.4605 6.63543 13.2888L6.5085 13.1837L6.31063 13.0128L6.08849 12.8126L5.84479 12.584L5.71571 12.4594C5.18439 11.9414 4.66576 11.3727 4.18887 10.7628C2.84522 9.04435 2.0415 7.28323 2.0415 5.54165C2.0415 2.80323 4.26142 0.583313 6.99984 0.583313ZM6.99984 1.74998C4.90575 1.74998 3.20817 3.44756 3.20817 5.54165C3.20817 6.9744 3.9098 8.51182 5.10795 10.0442C5.55031 10.61 6.03421 11.1406 6.5301 11.624L6.76502 11.8487C6.84242 11.9213 6.91993 11.994 6.99984 12.0639L7.23463 11.8487L7.46958 11.624C7.96546 11.1406 8.44936 10.61 8.89173 10.0442C10.0899 8.51182 10.7915 6.9744 10.7915 5.54165C10.7915 3.44756 9.09393 1.74998 6.99984 1.74998ZM6.99984 3.20831C8.2885 3.20831 9.33317 4.25298 9.33317 5.54165C9.33317 6.83031 8.2885 7.87498 6.99984 7.87498C5.71118 7.87498 4.6665 6.83031 4.6665 5.54165C4.6665 4.25298 5.71118 3.20831 6.99984 3.20831ZM6.99984 4.37498C6.35551 4.37498 5.83317 4.89732 5.83317 5.54165C5.83317 6.18598 6.35551 6.70831 6.99984 6.70831C7.64417 6.70831 8.1665 6.18598 8.1665 5.54165C8.1665 4.89732 7.64417 4.37498 6.99984 4.37498Z" fill="#FFC700"/>
</g>
</svg>
