<svg width="20" height="20" viewBox="0 0 20 20" fill="none" xmlns="http://www.w3.org/2000/svg">
<g id="search">
<path id="Vector (Stroke)" fill-rule="evenodd" clip-rule="evenodd" d="M0.833496 8.74999C0.833496 4.37776 4.37793 0.833328 8.75016 0.833328C13.1224 0.833328 16.6668 4.37776 16.6668 8.74999C16.6668 10.6359 16.0074 12.3679 14.9064 13.7277L17.9674 16.7887C18.2928 17.1141 18.2928 17.6418 17.9674 17.9672C17.6419 18.2926 17.1143 18.2926 16.7889 17.9672L13.7279 14.9063C12.368 16.0072 10.6361 16.6667 8.75016 16.6667C4.37793 16.6667 0.833496 13.1222 0.833496 8.74999ZM8.75016 2.49999C5.2984 2.49999 2.50016 5.29823 2.50016 8.74999C2.50016 12.2018 5.2984 15 8.75016 15C12.2019 15 15.0002 12.2018 15.0002 8.74999C15.0002 5.29823 12.2019 2.49999 8.75016 2.49999ZM5.80389 5.38701C6.55702 4.63393 7.59982 4.16666 8.75016 4.16666C9.9005 4.16666 10.9433 4.63393 11.6964 5.38703C12.0219 5.71247 12.0219 6.24011 11.6964 6.56554C11.371 6.89098 10.8433 6.89098 10.5179 6.56554C10.0646 6.11223 9.44074 5.83333 8.75016 5.83333C8.05959 5.83333 7.43572 6.11223 6.98236 6.56556C6.65691 6.89099 6.12927 6.89097 5.80384 6.56552C5.47842 6.24007 5.47844 5.71244 5.80389 5.38701Z" fill="black" fill-opacity="0.4"/>
</g>
</svg>
