<svg width="24" height="24" viewBox="0 0 24 24" fill="none" xmlns="http://www.w3.org/2000/svg">
<g id="send">
<path id="Vector (Stroke)" fill-rule="evenodd" clip-rule="evenodd" d="M22.2071 1.79289C22.4788 2.06453 22.5708 2.46776 22.4439 2.83035L15.7939 21.8303C15.6584 22.2173 15.3004 22.4825 14.8908 22.4992C14.4811 22.5159 14.1027 22.2808 13.9362 21.9061L10.2924 13.7076L2.09387 10.0638C1.71919 9.89728 1.48412 9.51891 1.50084 9.10923C1.51755 8.69955 1.78265 8.34159 2.16965 8.20614L21.1697 1.55614C21.5322 1.42923 21.9355 1.52125 22.2071 1.79289ZM12.2428 13.1715L14.7394 18.7889L19.1085 6.30568L12.2428 13.1715ZM17.6943 4.89147L5.21108 9.2606L10.8285 11.7572L17.6943 4.89147Z" fill="#FFC700"/>
</g>
</svg>
