<svg width="231" height="204" viewBox="0 0 231 204" fill="none" xmlns="http://www.w3.org/2000/svg">
<g id="Group 45">
<g id="Soul Meet Numerology">
<path d="M11.5788 170.005C9.52036 170.005 7.66779 169.652 6.02106 168.946C4.37434 168.211 3.08048 167.182 2.13949 165.859C1.1985 164.536 0.72801 162.992 0.72801 161.227H6.10928C6.2269 162.551 6.74151 163.639 7.65309 164.491C8.59408 165.344 9.90263 165.771 11.5788 165.771C13.3137 165.771 14.6664 165.359 15.6368 164.536C16.6072 163.683 17.0924 162.595 17.0924 161.271C17.0924 160.242 16.7836 159.404 16.1661 158.757C15.578 158.11 14.8281 157.61 13.9165 157.258C13.0344 156.905 11.7993 156.522 10.2114 156.111C8.2118 155.581 6.57977 155.052 5.31532 154.523C4.08028 153.964 3.02167 153.111 2.13949 151.965C1.25732 150.818 0.816228 149.289 0.816228 147.377C0.816228 145.613 1.25732 144.069 2.13949 142.746C3.02167 141.423 4.25671 140.408 5.84463 139.702C7.43254 138.997 9.27041 138.644 11.3582 138.644C14.3282 138.644 16.7542 139.394 18.6362 140.893C20.5476 142.364 21.6062 144.393 21.812 146.98H16.2543C16.1661 145.863 15.6368 144.907 14.6664 144.113C13.696 143.319 12.4168 142.922 10.8289 142.922C9.38803 142.922 8.2118 143.29 7.30022 144.025C6.38864 144.76 5.93285 145.819 5.93285 147.201C5.93285 148.142 6.2122 148.921 6.77091 149.539C7.35903 150.127 8.09418 150.597 8.97635 150.95C9.85853 151.303 11.0642 151.685 12.5933 152.097C14.6223 152.656 16.269 153.214 17.5335 153.773C18.8273 154.332 19.9153 155.199 20.7975 156.375C21.7091 157.522 22.1649 159.066 22.1649 161.007C22.1649 162.565 21.7385 164.036 20.8857 165.418C20.0624 166.8 18.842 167.917 17.2247 168.77C15.6368 169.593 13.7548 170.005 11.5788 170.005Z" fill="black"/>
<path d="M42.0807 170.005C39.2283 170.005 36.5965 169.343 34.1852 168.02C31.8033 166.667 29.9067 164.8 28.4952 162.418C27.1131 160.007 26.4221 157.302 26.4221 154.302C26.4221 151.303 27.1131 148.612 28.4952 146.23C29.9067 143.849 31.8033 141.996 34.1852 140.673C36.5965 139.32 39.2283 138.644 42.0807 138.644C44.9624 138.644 47.5943 139.32 49.9761 140.673C52.3874 141.996 54.2841 143.849 55.6662 146.23C57.0483 148.612 57.7393 151.303 57.7393 154.302C57.7393 157.302 57.0483 160.007 55.6662 162.418C54.2841 164.8 52.3874 166.667 49.9761 168.02C47.5943 169.343 44.9624 170.005 42.0807 170.005ZM42.0807 165.638C44.1097 165.638 45.9181 165.182 47.5061 164.271C49.094 163.33 50.329 162.007 51.2112 160.301C52.1228 158.566 52.5786 156.567 52.5786 154.302C52.5786 152.038 52.1228 150.053 51.2112 148.348C50.329 146.642 49.094 145.334 47.5061 144.422C45.9181 143.51 44.1097 143.055 42.0807 143.055C40.0517 143.055 38.2432 143.51 36.6553 144.422C35.0674 145.334 33.8176 146.642 32.9061 148.348C32.0239 150.053 31.5828 152.038 31.5828 154.302C31.5828 156.567 32.0239 158.566 32.9061 160.301C33.8176 162.007 35.0674 163.33 36.6553 164.271C38.2432 165.182 40.0517 165.638 42.0807 165.638Z" fill="black"/>
<path d="M67.6717 139.041V158.581C67.6717 160.904 68.2745 162.654 69.4801 163.83C70.7152 165.006 72.4207 165.594 74.5968 165.594C76.8022 165.594 78.5077 165.006 79.7134 163.83C80.9484 162.654 81.5659 160.904 81.5659 158.581V139.041H86.5944V158.493C86.5944 160.992 86.0503 163.109 84.9623 164.844C83.8743 166.579 82.4187 167.873 80.5956 168.726C78.7724 169.579 76.7581 170.005 74.5527 170.005C72.3472 170.005 70.3329 169.579 68.5098 168.726C66.716 167.873 65.2898 166.579 64.2312 164.844C63.1726 163.109 62.6433 160.992 62.6433 158.493V139.041H67.6717Z" fill="black"/>
<path d="M98.1698 165.638H108.535V169.696H93.1414V139.041H98.1698V165.638Z" fill="black"/>
<path d="M156.486 139.041V169.696H151.458V148.7L142.107 169.696H138.622L129.227 148.7V169.696H124.198V139.041H129.624L140.386 163.08L151.105 139.041H156.486Z" fill="black"/>
<path d="M168.124 143.099V152.097H178.71V156.199H168.124V165.594H180.033V169.696H163.095V138.997H180.033V143.099H168.124Z" fill="black"/>
<path d="M191.255 143.099V152.097H201.841V156.199H191.255V165.594H203.164V169.696H186.226V138.997H203.164V143.099H191.255Z" fill="black"/>
<path d="M229.163 139.041V143.143H221.002V169.696H215.974V143.143H207.77V139.041H229.163Z" fill="black"/>
<path d="M20.7752 203.39H15.1183L5.65695 189.066V203.39H0V180.167H5.65695L15.1183 194.558V180.167H20.7752V203.39Z" fill="black"/>
<path d="M30.4335 180.167V194.061C30.4335 195.451 30.7753 196.521 31.459 197.27C32.1427 198.02 33.1462 198.395 34.4695 198.395C35.7927 198.395 36.8072 198.02 37.513 197.27C38.2187 196.521 38.5716 195.451 38.5716 194.061V180.167H44.2285V194.028C44.2285 196.101 43.7874 197.855 42.9053 199.288C42.0231 200.722 40.8321 201.803 39.3324 202.53C37.8548 203.258 36.2007 203.622 34.3702 203.622C32.5397 203.622 30.8966 203.269 29.4411 202.563C28.0075 201.836 26.8717 200.755 26.0337 199.321C25.1956 197.866 24.7766 196.101 24.7766 194.028V180.167H30.4335Z" fill="black"/>
<path d="M74.5007 180.167V203.39H68.8438V189.463L63.65 203.39H59.0847L53.8578 189.43V203.39H48.2009V180.167H54.8834L61.4004 196.245L67.8514 180.167H74.5007Z" fill="black"/>
<path d="M84.2257 184.699V189.397H91.8014V193.764H84.2257V198.858H92.7938V203.39H78.5687V180.167H92.7938V184.699H84.2257Z" fill="black"/>
<path d="M108.31 203.39L103.48 194.624H102.123V203.39H96.4664V180.167H105.961C107.791 180.167 109.346 180.487 110.625 181.127C111.927 181.766 112.897 182.648 113.536 183.773C114.176 184.876 114.496 186.111 114.496 187.478C114.496 189.022 114.055 190.4 113.173 191.613C112.312 192.826 111.033 193.687 109.335 194.194L114.694 203.39H108.31ZM102.123 190.621H105.63C106.667 190.621 107.438 190.367 107.946 189.86C108.475 189.353 108.74 188.636 108.74 187.71C108.74 186.828 108.475 186.133 107.946 185.626C107.438 185.118 106.667 184.865 105.63 184.865H102.123V190.621Z" fill="black"/>
<path d="M129.03 203.622C126.847 203.622 124.84 203.115 123.009 202.1C121.201 201.086 119.756 199.674 118.676 197.866C117.617 196.035 117.088 193.984 117.088 191.713C117.088 189.441 117.617 187.401 118.676 185.593C119.756 183.784 121.201 182.373 123.009 181.358C124.84 180.344 126.847 179.836 129.03 179.836C131.213 179.836 133.209 180.344 135.018 181.358C136.848 182.373 138.282 183.784 139.318 185.593C140.377 187.401 140.906 189.441 140.906 191.713C140.906 193.984 140.377 196.035 139.318 197.866C138.26 199.674 136.826 201.086 135.018 202.1C133.209 203.115 131.213 203.622 129.03 203.622ZM129.03 198.461C130.883 198.461 132.36 197.844 133.463 196.609C134.588 195.374 135.15 193.742 135.15 191.713C135.15 189.662 134.588 188.03 133.463 186.817C132.36 185.582 130.883 184.964 129.03 184.964C127.155 184.964 125.656 185.571 124.531 186.784C123.428 187.996 122.877 189.64 122.877 191.713C122.877 193.764 123.428 195.407 124.531 196.642C125.656 197.855 127.155 198.461 129.03 198.461Z" fill="black"/>
<path d="M149.71 199.024H157.121V203.39H144.053V180.167H149.71V199.024Z" fill="black"/>
<path d="M170.802 203.622C168.619 203.622 166.612 203.115 164.781 202.1C162.973 201.086 161.528 199.674 160.447 197.866C159.389 196.035 158.86 193.984 158.86 191.713C158.86 189.441 159.389 187.401 160.447 185.593C161.528 183.784 162.973 182.373 164.781 181.358C166.612 180.344 168.619 179.836 170.802 179.836C172.985 179.836 174.981 180.344 176.79 181.358C178.62 182.373 180.054 183.784 181.09 185.593C182.149 187.401 182.678 189.441 182.678 191.713C182.678 193.984 182.149 196.035 181.09 197.866C180.032 199.674 178.598 201.086 176.79 202.1C174.981 203.115 172.985 203.622 170.802 203.622ZM170.802 198.461C172.655 198.461 174.132 197.844 175.235 196.609C176.36 195.374 176.922 193.742 176.922 191.713C176.922 189.662 176.36 188.03 175.235 186.817C174.132 185.582 172.655 184.964 170.802 184.964C168.927 184.964 167.428 185.571 166.303 186.784C165.2 187.996 164.649 189.64 164.649 191.713C164.649 193.764 165.2 195.407 166.303 196.642C167.428 197.855 168.927 198.461 170.802 198.461Z" fill="black"/>
<path d="M201.241 187.511C200.822 186.739 200.216 186.155 199.422 185.758C198.65 185.339 197.735 185.129 196.676 185.129C194.846 185.129 193.379 185.736 192.276 186.949C191.174 188.14 190.622 189.739 190.622 191.746C190.622 193.885 191.196 195.561 192.343 196.774C193.511 197.965 195.11 198.561 197.139 198.561C198.529 198.561 199.698 198.208 200.646 197.502C201.616 196.796 202.322 195.782 202.763 194.458H195.585V190.29H207.891V195.55C207.472 196.962 206.755 198.274 205.741 199.487C204.748 200.7 203.48 201.681 201.936 202.431C200.392 203.181 198.65 203.556 196.709 203.556C194.416 203.556 192.365 203.06 190.556 202.067C188.77 201.053 187.369 199.652 186.355 197.866C185.362 196.079 184.866 194.039 184.866 191.746C184.866 189.452 185.362 187.412 186.355 185.626C187.369 183.817 188.77 182.417 190.556 181.424C192.343 180.41 194.383 179.903 196.676 179.903C199.455 179.903 201.793 180.575 203.689 181.921C205.608 183.266 206.876 185.129 207.494 187.511H201.241Z" fill="black"/>
<path d="M230.939 180.167L222.901 195.716V203.39H217.244V195.716L209.205 180.167H215.623L220.122 189.893L224.588 180.167H230.939Z" fill="black"/>
</g>
<path id="union 1 (Traced)" fill-rule="evenodd" clip-rule="evenodd" d="M90.8096 0.217674C72.2236 2.32338 57.722 16.9409 55.6763 35.6312C55.0827 41.0558 55.6184 47.0064 57.1826 52.3585C58.203 55.8502 59.3356 58.5686 62.463 65.0328C64.154 68.5277 65.9259 72.5091 66.4003 73.8803C67.2583 76.3602 67.2629 76.3926 67.2597 80.0501C67.2572 83.0353 67.1568 84.1809 66.7256 86.14C65.8533 90.1018 64.6496 93.3897 62.603 97.4005C60.4465 101.626 60.2577 102.465 61.1405 103.894C61.4162 104.34 61.9763 104.863 62.3849 105.055C64.1384 105.879 97.844 117.623 98.4565 117.623C99.3448 117.623 100.753 116.817 101.201 116.051C101.398 115.715 102.936 111.278 104.62 106.191L107.68 96.9409H114.242H120.805L123.898 106.297C125.927 112.434 127.178 115.876 127.535 116.302C128.223 117.121 129.184 117.623 130.067 117.623C130.9 117.623 165.762 105.36 166.51 104.803C167.331 104.192 167.845 103.15 167.829 102.126C167.819 101.426 167.331 100.244 165.88 97.4005C163.833 93.3897 162.63 90.1018 161.757 86.14C161.326 84.1809 161.226 83.0353 161.223 80.0501C161.22 76.3926 161.225 76.3602 162.083 73.8803C162.557 72.5091 164.329 68.5277 166.02 65.0328C169.962 56.8871 171.02 54.1161 172.105 49.0886C175.988 31.1056 167.84 13.1491 151.916 4.59456C146.65 1.76565 141.003 0.300404 134.342 0.0354377C128.19 -0.209535 122.082 0.824131 117.113 2.95144C115.85 3.49218 114.557 3.93317 114.242 3.93111C113.926 3.92904 112.532 3.45242 111.143 2.87216C108.251 1.66269 103.882 0.552501 100.639 0.203196C98.0712 -0.0734902 93.318 -0.0665961 90.8096 0.217674ZM99.8837 7.09186C101.7 7.29477 106.463 8.32614 106.955 8.62305C107.053 8.68257 106.142 9.67074 104.929 10.8191C99.2302 16.2142 95.4753 22.5879 93.5489 30.1359C92.921 32.5952 92.4278 36.3719 92.4223 38.7609L92.4177 40.6752L87.8111 52.2972C83.7495 62.544 83.2037 64.0736 83.1982 65.2261C83.1908 66.7816 83.6726 68.0465 84.6762 69.1059C85.8779 70.3746 87.1318 70.8076 89.9482 70.9271L92.4177 71.0319V76.2728C92.4177 81.9021 92.6291 83.594 93.6449 86.0945C94.8121 88.9687 97.0469 91.7516 99.7248 93.6661C100.522 94.2358 101.131 94.8179 101.079 94.9597C101.026 95.1013 99.9104 98.4491 98.5987 102.399C97.2869 106.349 96.116 109.58 95.9966 109.58C95.663 109.58 69.5847 100.365 69.3828 100.176C69.2852 100.085 69.7138 98.8241 70.3355 97.375C71.7708 94.029 72.9805 90.211 73.6352 86.9613C74.0577 84.8639 74.1482 83.6487 74.15 80.0501C74.1516 76.1894 74.0901 75.4577 73.6175 73.7305C72.8735 71.0096 71.4972 67.7512 68.7166 62.1253C63.6921 51.9605 62.4711 47.6245 62.4718 39.949C62.472 36.4473 62.5605 35.2847 62.9737 33.3564C63.6473 30.2128 64.6397 27.4508 66.1205 24.5975C67.8384 21.2879 69.5822 18.9634 72.4103 16.2128C79.6829 9.13988 89.3851 5.9187 99.8837 7.09186ZM139.787 7.54181C151.346 9.97385 160.707 18.2949 164.44 29.4582C165.678 33.158 166.032 35.5639 166.017 40.1788C165.994 47.7597 164.929 51.4595 159.601 62.47C154.696 72.6037 154.33 73.8261 154.333 80.0501C154.335 83.6487 154.425 84.8639 154.848 86.9613C155.502 90.211 156.712 94.029 158.148 97.375C158.769 98.8241 159.198 100.085 159.1 100.177C158.893 100.373 132.846 109.581 132.502 109.581C132.374 109.58 131.196 106.348 129.884 102.399C128.573 98.4491 127.455 95.0971 127.401 94.9501C127.346 94.8032 127.904 94.2726 128.64 93.7712C131.21 92.0196 133.537 89.1463 134.783 86.1843C135.85 83.65 136.065 81.9817 136.065 76.2728V71.0319L138.535 70.9229C141.301 70.8009 142.402 70.4484 143.617 69.295C144.732 68.2365 145.243 66.9822 145.249 65.2895C145.254 63.9621 144.918 63.0103 140.66 52.2664L136.065 40.6752L136.061 38.7609C136.055 36.3719 135.562 32.5952 134.934 30.1359C133.007 22.5851 129.253 16.2145 123.549 10.8142L121.338 8.72141L122.844 8.25605C124.35 7.79092 127.327 7.18975 129.059 7.00131C131.262 6.76139 137.593 7.08059 139.787 7.54181ZM116.19 13.5811C124.271 19.6482 129.174 29.5191 129.174 39.7197V42.074L133.423 52.7936C135.761 58.6895 137.673 63.6404 137.673 63.796C137.673 64.0056 136.881 64.0786 134.606 64.0786C131.803 64.0786 131.474 64.1232 130.781 64.5957C129.212 65.6673 129.174 65.8907 129.174 73.875C129.174 80.3976 129.132 81.1691 128.712 82.5309C127.661 85.9355 125.125 88.4617 121.708 89.5094C120.517 89.8741 119.499 89.9316 114.242 89.9309C107.799 89.93 107.156 89.8493 104.991 88.7692C102.492 87.523 100.623 85.2888 99.771 82.5309C99.3506 81.1691 99.3094 80.3976 99.3094 73.875C99.3094 65.8907 99.2706 65.6673 97.7016 64.5957C97.0094 64.1232 96.6802 64.0786 93.8769 64.0786C91.6024 64.0786 90.8096 64.0056 90.8096 63.796C90.8096 63.6404 92.7221 58.6895 95.0595 52.7936L99.3094 42.074L99.3108 39.6903C99.3156 30.9981 102.799 22.6244 108.954 16.5088C110.894 14.5817 113.715 12.3767 114.242 12.3767C114.431 12.3767 115.308 12.9186 116.19 13.5811ZM105.759 36.775C103.913 37.7397 103.436 39.7652 104.355 42.74C105.243 45.6135 107.056 47.7057 109.865 49.0976C111.54 49.9279 111.631 49.9456 114.242 49.9456C116.851 49.9456 116.943 49.9279 118.618 49.0981C121.43 47.7054 123.264 45.5657 124.156 42.6352C125.085 39.5827 124.447 37.3881 122.404 36.6072C121.145 36.1264 120.038 36.2935 119.067 37.1105C118.156 37.8773 117.933 38.3213 117.681 39.8739C117.566 40.5794 117.308 41.4067 117.108 41.7128C115.853 43.6282 112.63 43.6282 111.375 41.7128C111.175 41.4067 110.912 40.5493 110.791 39.807C110.322 36.9234 108.07 35.5666 105.759 36.775Z" fill="#FFC700"/>
</g>
</svg>
