<svg width="44" height="42" viewBox="0 0 44 42" fill="none" xmlns="http://www.w3.org/2000/svg">
<path id="Star 22" d="M19.1468 2.78116C20.0449 0.0172267 23.9551 0.0172195 24.8532 2.78115L27.8374 11.9656C28.239 13.2016 29.3909 14.0385 30.6905 14.0385L40.3476 14.0385C43.2538 14.0385 44.4621 17.7574 42.1109 19.4656L34.2982 25.1418C33.2468 25.9058 32.8068 27.2599 33.2084 28.4959L36.1926 37.6803C37.0907 40.4443 33.9272 42.7426 31.5761 41.0344L23.7634 35.3582C22.7119 34.5942 21.2881 34.5942 20.2366 35.3582L12.4239 41.0344C10.0728 42.7426 6.90934 40.4443 7.8074 37.6803L10.7916 28.4959C11.1932 27.2599 10.7532 25.9058 9.70178 25.1418L1.88905 19.4656C-0.462092 17.7573 0.746241 14.0385 3.65241 14.0385L13.3095 14.0385C14.6091 14.0385 15.761 13.2016 16.1626 11.9656L19.1468 2.78116Z" fill="#FFC700"/>
</svg>
