<svg width="20" height="20" viewBox="0 0 20 20" fill="none" xmlns="http://www.w3.org/2000/svg">
<g id="stickers">
<path id="Vector (Stroke)" fill-rule="evenodd" clip-rule="evenodd" d="M0.833496 9.99998C0.833496 4.93737 4.93755 0.833313 10.0002 0.833313C10.2212 0.833313 10.4331 0.92111 10.5894 1.07739L18.9228 9.41072C19.079 9.567 19.1668 9.77896 19.1668 9.99998C19.1668 15.0626 15.0628 19.1666 10.0002 19.1666C4.93755 19.1666 0.833496 15.0626 0.833496 9.99998ZM8.90575 2.57926C5.28236 3.10901 2.50016 6.22958 2.50016 9.99998C2.50016 14.1421 5.85802 17.5 10.0002 17.5C13.7975 17.5 16.9358 14.6778 17.4319 11.0165C16.9773 11.0743 16.4084 11.1161 15.7772 11.0932C14.2216 11.0366 12.1997 10.5806 10.6395 8.90036C9.0972 7.23941 8.74739 5.33868 8.77637 3.88957C8.78622 3.39697 8.83959 2.95219 8.90575 2.57926ZM10.4815 3.32645L16.5761 9.42114C16.3456 9.43327 16.0976 9.43706 15.8377 9.42761C14.5287 9.38001 13.0089 9.00267 11.8608 7.76627C10.6948 6.51055 10.4196 5.07794 10.4427 3.92289C10.4469 3.71254 10.4611 3.51265 10.4815 3.32645Z" fill="black" fill-opacity="0.4"/>
</g>
</svg>
