<svg width="20" height="20" viewBox="0 0 20 20" fill="none" xmlns="http://www.w3.org/2000/svg">
<g id="voice">
<g id="Union">
<path d="M13.7498 9.99998V4.58331C13.7498 2.51225 12.0709 0.833313 9.99984 0.833313C7.92875 0.833313 6.24984 2.51225 6.24984 4.58331V9.99998C6.24984 12.0711 7.92875 13.75 9.99984 13.75C12.0709 13.75 13.7498 12.0711 13.7498 9.99998Z" fill="#FFC700"/>
<path d="M3.74984 8.74998C4.21007 8.74998 4.58317 9.12307 4.58317 9.58331C4.58317 12.5749 7.00828 15 9.99984 15C12.9914 15 15.4165 12.5749 15.4165 9.58331C15.4165 9.12307 15.7896 8.74998 16.2498 8.74998C16.7101 8.74998 17.0832 9.12307 17.0832 9.58331C17.0832 13.2134 14.3525 16.2057 10.8332 16.6181V18.3333C10.8332 18.7935 10.4601 19.1666 9.99984 19.1666C9.5396 19.1666 9.1665 18.7935 9.1665 18.3333V16.6181C5.64719 16.2057 2.9165 13.2134 2.9165 9.58331C2.9165 9.12307 3.2896 8.74998 3.74984 8.74998Z" fill="#FFC700"/>
</g>
</g>
</svg>
